HIERARCHY
ROOT ui
{
	 OFFSET 0 0 0
	 CHANNELS 3 XPosition YPosition Z Position
	 EndSite
	 {
	 OFFSET 0 -1 0
	 }
}
ROOT li
{
	 OFFSET 0 0 0
	 CHANNELS 3 XPosition YPosition Z Position
	 EndSite
	 {
	 OFFSET 0 -1 0
	 }
}
ROOT ul
{
	 OFFSET 0 0 0
	 CHANNELS 3 XPosition YPosition Z Position
	 EndSite
	 {
	 OFFSET 0 -1 0
	 }
}
ROOT ll
{
	 OFFSET 0 0 0
	 CHANNELS 3 XPosition YPosition Z Position
	 EndSite
	 {
	 OFFSET 0 -1 0
	 }
}
ROOT tt
{
	 OFFSET 0 0 0
	 CHANNELS 3 XPosition YPosition Z Position
	 EndSite
	 {
	 OFFSET 0 -1 0
	 }
}
ROOT tb
{
	 OFFSET 0 0 0
	 CHANNELS 3 XPosition YPosition Z Position
	 EndSite
	 {
	 OFFSET 0 -1 0
	 }
}
ROOT td
{
	 OFFSET 0 0 0
	 CHANNELS 3 XPosition YPosition Z Position
	 EndSite
	 {
	 OFFSET 0 -1 0
	 }
}
ROOT v
{
	 OFFSET 0 0 0
	 CHANNELS 3 XPosition YPosition Z Position
	 EndSite
	 {
	 OFFSET 0 -1 0
	 }
}
ROOT bn
{
	 OFFSET 0 0 0
	 CHANNELS 3 XPosition YPosition Z Position
	 EndSite
	 {
	 OFFSET 0 -1 0
	 }
}
MOTION
Frames: 21
Frame Time: 0.002
0.015337659835815429	-4.0865200757980345E-4	0		0.48720245361328124	-2.388862548828125	0		-1.159674560546875	-0.0837114486694336	0		-0.9106526489257812	-2.652517822265625	0		1.4913665771484375	-0.6325958251953125	0		3.249612060546875	-0.11646522521972656	0		4.65765576171875	0.06095672988891602	0		5.602080078125	0.12348728942871094	0		-0.17922674560546875	5.96500390625	0		
-0.004078333854675293	-0.0020239179134368896	0		0.43692721557617187	-2.377850341796875	0		-1.1918809814453124	-0.07499622344970704	0		-0.8721083984375	-2.650310791015625	0		1.49202001953125	-0.62970751953125	0		3.23071728515625	-0.09324740600585937	0		4.65528076171875	0.06075098419189453	0		5.60263720703125	0.1367853088378906	0		-0.1670779266357422	5.97574169921875	0		
0.06378612518310547	5.162799954414368E-4	0		0.4787290954589844	-2.37278173828125	0		-1.1611806640625	-0.07961709594726563	0		-0.9093649291992187	-2.64651123046875	0		1.489786376953125	-0.6297569580078125	0		3.239189208984375	-0.10860686492919921	0		4.65307958984375	0.06055428695678711	0		5.6052177734375	0.12231990051269531	0		-0.18419085693359374	5.96708837890625	0		
-0.00521181583404541	0.001945104956626892	0		0.42268988037109373	-2.368646728515625	0		-1.163197021484375	-0.07955431365966797	0		-0.8436762084960937	-2.6558974609375	0		1.4815994873046876	-0.6366793823242187	0		3.2504228515625	-0.09701097106933594	0		4.65106884765625	0.060367420196533204	0		5.6037763671875	0.12193264770507813	0		-0.1859476318359375	5.967109375	0		
0.061792896270751956	-0.00751126480102539	0		0.470606201171875	-2.377716552734375	0		-1.1767955322265624	-0.06925124359130859	0		-0.893388427734375	-2.6458427734375	0		1.479764404296875	-0.6367319946289063	0		3.2305068359375	-0.1017497329711914	0		4.655111328125	0.053065258026123045	0		5.5983525390625	0.13908544921875	0		-0.18752456665039063	5.9671220703125	0		
-0.01660160255432129	0.0031180639266967774	0		0.4170593566894531	-2.370632080078125	0		-1.2026077880859376	-0.07870039367675781	0		-0.8801722412109375	-2.650132080078125	0		1.4812236328125	-0.6328510131835937	0		3.228900390625	-0.1018653793334961	0		4.6524892578125	0.05192121887207031	0		5.59717431640625	0.1352884521484375	0		-0.18796124267578124	5.96510498046875	0		
0.06491828155517577	-0.0016571190357208253	0		0.45543087768554685	-2.3785048828125	0		-1.20092333984375	-0.07473842620849609	0		-0.9134951171875	-2.642435791015625	0		1.4859541015625	-0.6260360107421875	0		3.24541064453125	-0.10635700225830078	0		4.65422021484375	0.05770275115966797	0		5.60328955078125	0.13288035583496094	0		-0.15877796936035157	5.9834580078125	0		
-0.011222602844238282	0.001921010971069336	0		0.4702919006347656	-2.372876708984375	0		-1.1281851806640626	-0.0783004379272461	0		-0.8439091796875	-2.649940673828125	0		1.4847371826171876	-0.6260927734375	0		3.224573974609375	-0.08903789520263672	0		4.65816943359375	0.06445436096191406	0		5.6024296875	0.1325985870361328	0		-0.17598748779296874	5.975787109375	0		
0.004777997016906738	0.002533898115158081	0		0.44122909545898437	-2.372314453125	0		-1.176129150390625	-0.07429848480224609	0		-0.8927816162109375	-2.639925048828125	0		1.4744739990234375	-0.6369556274414062	0		3.22527734375	-0.1021731948852539	0		4.64989990234375	0.05247919845581055	0		5.60516064453125	0.12005436706542968	0		-0.19206129455566406	5.96708837890625	0		
-0.01923710823059082	-0.00500491189956665	0		0.4642249755859375	-2.377864990234375	0		-1.146901611328125	-0.07095023345947266	0		-0.8607926025390625	-2.645643798828125	0		1.467763671875	-0.6298869018554687	0		3.224426025390625	-0.10226219940185546	0		4.64905078125	0.05236478042602539	0		5.591716796875	0.12049444580078125	0		-0.191847412109375	5.96503955078125	0		
0.008122164726257325	-0.0026416139602661133	0		0.4214392395019531	-2.38001171875	0		-1.2077794189453126	-0.07868904876708985	0		-0.9195142822265625	-2.644431396484375	0		1.4928798828125	-0.6384989624023437	0		3.228575439453125	-0.10945024108886718	0		4.65248046875	0.0581754264831543	0		5.597634765625	0.11996421813964844	0		-0.19246324157714845	5.96500390625	0		
-0.022325685501098633	0.002953742027282715	0		0.46701434326171876	-2.373045166015625	0		-1.1682867431640624	-0.07657686614990235	0		-0.8811111450195312	-2.645300048828125	0		1.4754227294921876	-0.6331962280273438	0		3.212486572265625	-0.08719015502929688	0		4.64607080078125	0.06521100616455078	0		5.593076171875	0.13385066223144532	0		-0.17873321533203124	5.97565966796875	0		
0.010186504364013672	1.9912700355052948E-4	0		0.42448577880859373	-2.376199462890625	0		-1.168724853515625	-0.07661927032470703	0		-0.8815655517578125	-2.64534423828125	0		1.51284423828125	-0.6400663452148437	0		3.23672216796875	-0.10279139709472657	0		4.65460986328125	0.06393943405151367	0		5.606296875	0.13127168273925782	0		-0.1933646240234375	5.96491259765625	0		
0.006797791004180908	-0.0027904179096221926	0		0.4641871337890625	-2.375110595703125	0		-1.1489266357421875	-0.07109909057617188	0		-0.8947459716796875	-2.63811962890625	0		1.4856942138671876	-0.6315498046875	0		3.240502685546875	-0.09794192504882812	0		4.64118115234375	0.05915043640136719	0		5.5989794921875	0.1367082061767578	0		-0.1936723175048828	5.96485888671875	0		
0.001680987000465393	0.0022573509216308593	0		0.40121246337890626	-2.36282421875	0		-1.185121826171875	-0.06938798522949219	0		-0.8949701538085938	-2.638177734375	0		1.5033585205078126	-0.6369910278320312	0		3.23132275390625	-0.0958071517944336	0		4.64680517578125	0.05196695709228515	0		5.59881884765625	0.13661029052734375	0		-0.1948556671142578	5.96682177734375	0		
0.006435585021972656	-0.00290903902053833	0		0.4477086486816406	-2.38088427734375	0		-1.20946728515625	-0.0789372329711914	0		-0.883272705078125	-2.64649609375	0		1.471209228515625	-0.6373626098632813	0		3.21621044921875	-0.09453693389892578	0		4.63082080078125	0.05926177215576172	0		5.59001220703125	0.1196839599609375	0		-0.19405538940429687	5.96473974609375	0		
-0.015537707328796387	0.001497913956642151	0		0.4237502136230469	-2.376431884765625	0		-1.20644580078125	-0.07507186126708984	0		-0.8771722412109375	-2.639693359375	0		1.4942081298828125	-0.6349081420898437	0		3.24903271484375	-0.1002837142944336	0		4.6487099609375	0.05684340667724609	0		5.59934375	0.13126051330566407	0		-0.1779667205810547	5.97333251953125	0		
0.0045391302108764645	0.005006865978240967	0		0.4678849792480469	-2.37143212890625	0		-1.16947900390625	-0.07693523406982422	0		-0.88797998046875	-2.63153076171875	0		1.4653016357421875	-0.6303394165039062	0		3.214400634765625	-0.08257456970214844	0		4.65385400390625	0.06371261596679688	0		5.5952158203125	0.14875242614746093	0		-0.1942112579345703	5.96461181640625	0		
-0.018583473205566407	-0.002562769889831543	0		0.447745361328125	-2.381060302734375	0		-1.185281982421875	-0.06967075347900391	0		-0.8540009155273437	-2.636328125	0		1.50321484375	-0.637195556640625	0		3.21618798828125	-0.09464139556884765	0		4.6507685546875	0.05776713562011719	0		5.5964150390625	0.11927265167236328	0		-0.19423443603515625	5.964546875	0		
0.006489645004272461	-0.0031581389904022216	0		0.46191653442382813	-2.37841552734375	0		-1.1793104248046875	-0.07487509155273438	0		-0.888815185546875	-2.632655029296875	0		1.4833280029296876	-0.6358109130859375	0		3.21626806640625	-0.09466048431396484	0		4.6508466796875	0.057767074584960935	0		5.5987646484375	0.1364774169921875	0		-0.20942337036132813	5.9558046875	0		
-0.026355148315429688	-5.152770280838013E-4	0		0.4122397155761719	-2.369404541015625	0		-1.1692491455078124	-0.07716615295410156	0		-0.8886700439453125	-2.63272900390625	0		1.5034168701171875	-0.6372748413085938	0		3.22220263671875	-0.10279790496826172	0		4.65095068359375	0.05777762222290039	0		5.59239306640625	0.13339091491699218	0		-0.1942206573486328	5.96441943359375	0		
